<svg width="30" height="26" viewBox="0 0 30 26" fill="none" xmlns="http://www.w3.org/2000/svg">
<path d="M26.6695 12.395C25.41 11.704 20.999 10.2745 17.329 9.205L19.993 6.4535L20.282 6.753L20.9185 6.096L20.6295 5.796L22.4715 3.8925L22.119 3.5275L23.961 1.625L22.389 0L20.5465 1.903L20.192 1.538L18.3485 3.441L17.6585 2.729L13.403 7.13L13.9395 7.6865L17.55 3.9535L17.708 4.1035L13.8105 8.129C10.293 6.516 8.96 8.2965 7.1375 10.7565C6.14 12.1025 4.898 13.7785 2.9655 15.4105C2.3335 15.943 1.686 16.86 1.7655 17.837C1.8045 18.322 2.0525 19.009 2.9435 19.612L1.0465 23.1305L0 24.2135L0.518 24.749L1.5695 23.6635L4.006 22.265C4.4605 22.8715 5.1615 23.302 5.877 23.3725C7.5975 23.5445 9.0555 24.185 10.466 24.8045C11.8645 25.4195 13.185 26 14.564 26C16.3825 26 17.8025 25.7535 19.305 25.492C21.2555 25.1535 23.4665 24.77 27.2005 24.77C28.5895 24.77 29.5685 23.635 29.8865 21.658C30.448 18.18 28.854 13.592 26.6695 12.395ZM12.0035 17.6895C11.524 17.4685 11.068 17.259 10.692 17.121C10.6645 17.111 10.634 17.1025 10.6065 17.0925C10.8225 16.754 11.2615 16.1805 12.1275 15.3705C12.062 16.3295 12.0225 17.216 12.0035 17.6895ZM20.1925 2.4355L21.6035 3.8925L20.1955 5.3465L18.7845 3.8895L20.1925 2.4355ZM18.147 4.548L19.558 6.005L9.1075 16.799C7.735 16.7115 6.087 17.0855 4.6685 18.4705L18.147 4.548ZM3.618 16.1835C5.6605 14.4995 6.921 12.748 7.95 11.36C9.722 8.9685 10.648 7.576 13.272 8.686L4.007 18.2565C3.5485 17.986 2.462 17.1365 3.618 16.1835ZM1.9825 22.7025L3.462 19.9485L3.5895 20.08C3.42983 20.6075 3.45829 21.1741 3.67 21.683L1.9825 22.7025ZM29.173 21.361C29.0375 22.205 28.0185 23.354 26.867 23.354C23.0455 23.354 21.122 23.917 19.127 24.24C15.265 24.8645 12.3985 24.07 11.1505 23.2745C8.0225 21.2815 6.317 22.3095 4.8795 21.202C4.417 20.8455 4.4585 19.9745 4.911 19.43C6.911 17.029 9.515 17.4315 10.36 17.8325C12.7925 18.9875 15.0045 19.1575 15.596 19.0285C16.1885 18.9075 16.7125 18.5855 17.1215 18.182C16.6565 18.5235 16.1135 18.7485 15.5595 18.778C15.007 18.8165 13.416 18.32 13.1465 18.2045C13.049 17.726 12.892 16.873 12.8775 16.2475C13.8745 17.264 14.9705 17.522 14.9705 17.522L12.838 14.71C12.838 14.71 15.958 11.2745 18.034 10.22C21.529 11.246 25.202 12.397 26.259 12.977C28.058 13.9625 29.658 18.355 29.173 21.361Z" fill="white"/>
</svg>
