<svg width="33" height="32" viewBox="0 0 33 32" fill="none" xmlns="http://www.w3.org/2000/svg">
<path d="M12.5 24V6.66667L28.5 4V21.3333" stroke="white" stroke-width="2" stroke-linecap="round" stroke-linejoin="round"/>
<path d="M8.5 28C10.7091 28 12.5 26.2091 12.5 24C12.5 21.7909 10.7091 20 8.5 20C6.29086 20 4.5 21.7909 4.5 24C4.5 26.2091 6.29086 28 8.5 28Z" stroke="white" stroke-width="2" stroke-linecap="round" stroke-linejoin="round"/>
<path d="M24.5 25.332C26.7091 25.332 28.5 23.5412 28.5 21.332C28.5 19.1229 26.7091 17.332 24.5 17.332C22.2909 17.332 20.5 19.1229 20.5 21.332C20.5 23.5412 22.2909 25.332 24.5 25.332Z" stroke="white" stroke-width="2" stroke-linecap="round" stroke-linejoin="round"/>
</svg>
