<svg width="32" height="32" viewBox="0 0 32 32" fill="none" xmlns="http://www.w3.org/2000/svg">
<path d="M22.437 23.5312L23.25 24.7812C28.875 21.0003 32 16.4062 32 12.6252C32 8.96925 29.312 7.25025 27.031 7.25025C24.156 7.25025 22.125 9.68825 22.125 12.2502C22.125 14.4062 23.5 16.2502 25.344 16.9382C25.875 17.1262 26.375 17.2822 26.375 18.1882C26.375 19.3442 25.531 21.0622 22.437 23.5312ZM10.031 23.5312L10.844 24.7812C16.407 21.0003 19.594 16.4062 19.594 12.6252C19.594 8.96925 16.844 7.25025 14.563 7.25025C11.657 7.25025 9.594 9.68825 9.594 12.2502C9.594 14.4062 11 16.2502 12.907 16.9382C13.438 17.1262 13.907 17.2822 13.907 18.1882C13.907 19.3442 13.032 21.0632 10.032 23.5322L10.031 23.5312Z" fill="white"/>
</svg>
